<svg width="35" height="35" viewBox="0 0 35 35" xmlns="http://www.w3.org/2000/svg"><title>CF203A33-8A04-4344-B748-5F9D6BE4B8D1</title><path d="M26.612 8.14c3.404 3.435 4.854 7.333 4.382 10.49 0 0-.165 1 .483 1.654a1.808 1.808 0 0 0 2.565.006c.438-.443.534-1.162.534-1.162.39-2.73-.1-8.22-5.403-13.57S18.43-.288 15.725.104c0 0-.713.097-1.152.54a1.847 1.847 0 0 0 .006 2.59c.646.652 1.637.486 1.637.486 3.13-.477 6.992.987 10.395 4.42h.001zM17.81 6.729s-.938-.148-1.595.516a1.854 1.854 0 0 0 .007 2.576c.42.425 1.015.516 1.015.516 1.158.22 2.903.59 4.76 2.463 1.856 1.873 2.223 3.634 2.44 4.802 0 0 .09.6.51 1.025.714.718 1.88.69 2.555.007.657-.664.51-1.61.51-1.61a12.492 12.492 0 0 0-3.455-6.808c-1.952-1.97-4.402-3.116-6.746-3.488zM13.3 21.592c3.11 3.116 6.71 6.093 8.125 4.655 2.024-2.057 3.27-3.846 7.76-.232 4.49 3.617 1.06 6.05-.9 8.043-2.26 2.3-10.733.16-19.13-8.248C.757 17.397-1.427 8.864.837 6.564c1.96-1.993 4.346-5.472 7.96-.966 3.617 4.503 1.853 5.774-.17 7.83-1.413 1.438 1.562 5.048 4.673 8.164z" fill="#014986" fill-rule="evenodd"/></svg>