<svg width="24" height="36" viewBox="0 0 24 36" xmlns="http://www.w3.org/2000/svg"><title>67C5D8C8-74BE-44A9-AC88-5B2EAE4D50FB</title><g fill="none" fill-rule="evenodd"><path d="M.477 31.004L1 26.3l2.572-1.607L14.597 22l8.36.43-.434 6.693s1.179-4.48-5.59-5.254c-6.768-.773-8.313 7.135-8.313 7.135H.477z" stroke="#B4B5B4" fill="#B4B5B4"/><path d="M2 24.903V13.478L10.46.596h12.248l.32 20.815s-12.505-.595-13.596 3.245c-4.251.247-7.432.247-7.432.247z" stroke="#35B6C6" fill="#35B6C6"/><path d="M9.263.827C9.546.36 10.224-.01 10.767 0l11.505.235c.547.011.991.463.991 1.027v30.324s-.682-7.193-7.108-7.193c-6.426 0-7.469 7.107-7.469 7.107l-7.544-.165A1.11 1.11 0 0 1 .078 30.32s-.214-2.344.067-3.386c.282-1.043.489-.705.489-.705.525-.14.951-.695.951-1.25V14.525c0-.551.236-1.389.512-1.845L9.263.827z" stroke="#005AA5"/><path d="M12.606 2c-.55 0-1.224.38-1.515.866L5.52 12.175c-.287.478-.519 1.319-.519 1.87v3.76c0 .555.44 1.005.996 1.005h2.122c.55 0 1.215-.382 1.493-.865l2.692-4.678c.274-.478.95-.865 1.496-.865h6.016a1.01 1.01 0 0 0 1.009-.997l.088-8.404a.987.987 0 0 0-.987-.998L12.606 2z" stroke="#005AA5" fill="#E5EAEF"/><path d="M2 24.846l7.623.143s1.868-2.984 6.232-2.984c4.365 0 7.567-.005 7.567-.005" stroke="#005AA5"/><ellipse stroke="#005AA5" cx="16" cy="31" rx="5" ry="5"/><ellipse stroke="#005AA5" fill="#35B6C6" cx="16" cy="31" rx="2" ry="2"/></g></svg>