<svg width="70" height="70" viewBox="0 0 70 70" xmlns="http://www.w3.org/2000/svg"><title>9DBF0C46-5CBD-4802-AA13-4779F8577543</title><g fill="#014986" fill-rule="evenodd"><path d="M34.9 0C15.7 0 0 15.6 0 34.9c0 19.3 15.6 34.9 34.9 34.9 19.3 0 34.9-15.6 34.9-34.9C69.8 15.6 54.1 0 34.9 0zm0 64.1C18.8 64.1 5.7 51 5.7 34.9S18.8 5.7 34.9 5.7s29.2 13.1 29.2 29.2S51 64.1 34.9 64.1z"/><path d="M50.025 21.825l-20.7 20.7-9.5-9.5c-1.1-1.1-2.9-1.1-4 0s-1.1 2.9 0 4l11.5 11.5c.5.5 1.3.8 2 .8.8 0 1.5-.3 2-.8l22.7-22.7c1.1-1.1 1.1-2.9 0-4s-2.9-1.1-4 0z"/></g></svg>