<svg width="70" height="71" viewBox="0 0 70 71" xmlns="http://www.w3.org/2000/svg"><title>AFE02726-9291-4A68-9C92-4B1A0A83235B</title><g fill="#D0011B" fill-rule="evenodd" fill-opacity=".413"><path d="M35 .402c-19.3 0-35 15.7-35 35s15.7 35 35 35 35-15.7 35-35-15.7-35-35-35zm0 65.6c-16.9 0-30.6-13.7-30.6-30.6 0-16.9 13.7-30.6 30.6-30.6 16.9 0 30.6 13.7 30.6 30.6 0 16.9-13.7 30.6-30.6 30.6z"/><path d="M50.075 47.377l-11.5-11.5 11.4-11.4c.9-.8.9-2.2 0-3.1-.9-.9-2.3-.9-3.1 0l-11.4 11.3-11.6-11.6c-.9-.9-2.3-.9-3.1 0-.9.9-.9 2.3 0 3.1l11.6 11.6-11.7 11.6c-.9.8-.9 2.2 0 3.1.9.9 2.3.9 3.1 0l11.6-11.5 11.6 11.5c.9.9 2.3.9 3.1 0 .8-.8.8-2.2 0-3.1z"/></g></svg>