<svg xmlns="http://www.w3.org/2000/svg" width="142" height="101" viewBox="0 0 142 101"><svg width="40" viewBox="0 0 40 24" height="24"><title>FA772270-35A6-42C4-B753-BD0D9CD699C3</title><g fill-rule="evenodd"><path d="M20.034 21.03C22.576 18.795 24 15.544 24 12.09c0-3.556-1.525-6.705-3.966-8.94C17.797 1.117 14.949 0 12 0 5.39 0 0 5.385 0 11.988c0 6.604 5.39 11.988 12 11.988 2.95.204 5.797-.914 8.034-2.946" fill="#009CDC"/><path d="M27.897 0c-2.974 0-5.948 1.09-8.102 3.074-.41.397-.82.794-1.23 1.29h2.46c.308.396.616.793.924 1.289H17.64c-.205.397-.513.793-.718 1.29h5.744c.205.396.41.793.512 1.288h-6.871c-.103.397-.205.794-.308 1.29h7.487c.205.793.308 1.586.308 2.479 0 1.29-.205 2.579-.616 3.769h-6.871c.102.396.307.892.513 1.289h5.743c-.205.397-.41.892-.718 1.29h-4.308c.308.396.616.892.924 1.288h2.461c-.41.397-.82.893-1.23 1.29C21.948 22.909 24.82 24 27.896 24 34.564 24 40 18.744 40 12.298 40 5.256 34.564 0 27.897 0" fill="#ED2233"/><path d="M9.4 16H7.9l.9-4.6-2 4.6H5.6l-.2-4.6-1 4.6H3l1.1-6h2.3v3.7L8 10h2.5l-1.1 6zm16.5 0c-.4.1-.7.2-1.1.2-.8 0-1.2-.4-1.2-1.1v-.4l.1-.5.1-.4.7-3.7H26l-.2 1.1h.8l-.2 1.2h-.8l-.4 2v.2c0 .3.1.4.5.4h.4l-.2 1zM20 12.7c0 .6.3 1 1.1 1.4.6.2.7.3.7.5 0 .3-.3.4-.9.4-.4 0-.9-.1-1.3-.2l-.2 1.1h.1l.3.1c.4 0 .8.1 1.2.1 1.6 0 2.3-.5 2.3-1.6 0-.7-.3-1.1-1.1-1.4-.6-.2-.7-.3-.7-.5 0-.3.2-.4.7-.4.3 0 .7 0 1.1.1l.2-1.1c-.4-.1-.9-.1-1.3-.1-1.6-.1-2.2.7-2.2 1.6zm-6.8 1.2h-.3c-.8 0-1.3.2-1.3.7 0 .3.2.5.5.5.6 0 1.1-.5 1.1-1.2zm1 2.1h-1.3v-.5c-.4.4-.9.6-1.5.6-.8 0-1.3-.5-1.3-1.3 0-1.2 1-1.9 2.6-1.9h.6c0-.2.1-.2.1-.3 0-.3-.3-.4-.9-.4-.4 0-.9.1-1.2.1H11l.2-1.1c.7-.2 1.2-.3 1.8-.3 1.3 0 1.9.5 1.9 1.4 0 .2 0 .4-.1 1-.3 1-.5 1.9-.6 2.7zm4.1-3v-.2c0-.4-.3-.6-.7-.6-.5 0-.8.3-.9.9l1.6-.1zm.7 2.9c-.5.1-1 .2-1.5.2-1.6 0-2.5-.8-2.5-2.2 0-1.7 1.1-2.9 2.6-2.9 1.2 0 2 .7 2 1.8 0 .4-.1.7-.2 1.2h-2.9v.2c0 .6.4.9 1.3.9.5 0 1-.1 1.5-.3l-.3 1.1zm14.3-2.7c0-.5-.2-1-.8-1-.8 0-1.2.9-1.2 1.7 0 .7.3 1.1.8 1.1.3 0 1-.4 1.1-1.2 0-.2.1-.4.1-.6zm1.5.6c-.2 1.6-1.4 2.3-2.9 2.3-1.7 0-2.3-1-2.3-2.2 0-1.7 1.1-2.9 2.9-2.9 1.5 0 2.3 1 2.3 2.2v.6z" fill="#003873"/><path d="M35.7 14.6h.1c.1-.1 0-.1-.1 0 .1-.1.1-.1 0 0zm0 .2l-.1-.3h.2v.1s0 .1-.1.1l.1.1h-.1l-.1-.1h-.1v.1h.2zm.1.1c.2 0 .3-.1.3-.3s-.1-.3-.3-.3-.3.1-.3.3.1.3.3.3zm-.4-.3c0-.2.2-.4.4-.4s.4.2.4.4-.2.4-.4.4-.4-.2-.4-.4zm-25.1.4H8.8l.9-4.6-2 4.6H6.4l-.2-4.6-.9 4.6H4l1.1-6h2.3l.1 3.7L9.1 9h2.4l-1.2 6zm16.4-.1c-.4.1-.7.2-1.1.2-.8 0-1.2-.4-1.2-1.1v-.4l.1-.5.1-.4.7-3.7h1.5l-.2 1.1h.8l-.2 1.2h-.8l-.4 2v.2c0 .2.1.4.5.4h.4l-.2 1z" fill="#FFF"/><path d="M30.5 12.1v-.2l.3-.8h-.3c-.5 0-.8.2-1.3.8l.2-.9h-1.5l-.9 4.9h1.5c.2-1.1.3-1.8.4-2.3.2-.9.9-1.3 1.3-1.2h.3v-.3" fill="#003873"/><path d="M30.9 10.3c-.1 0-.1 0-.2-.1h-.2c-.5 0-.8.2-1.3.8l.1-.7H28l-.9 4.9h1.5c.5-3 .8-3.5 1.5-3.5h.4l.4-1.4zm-10.1 1.5c0 .6.3 1 1.1 1.4.6.2.7.3.7.5 0 .3-.3.4-.9.4-.4 0-.9-.1-1.3-.2l-.2 1.1h.1l.3.1h1.2c1.6 0 2.3-.5 2.3-1.6 0-.7-.3-1.1-1-1.4-.6-.2-.7-.3-.7-.5 0-.3.2-.4.7-.4.3 0 .7 0 1.1.1l.2-1.1c-.4-.1-1-.1-1.3-.1-1.7 0-2.3.8-2.3 1.7zm-6.9 1.1h-.3c-.8 0-1.3.2-1.3.7 0 .3.2.5.5.5.6 0 1.1-.5 1.1-1.2zm1.1 2.2h-1.2v-.5c-.4.4-.9.6-1.5.6-.8 0-1.3-.5-1.3-1.3 0-1.2 1-1.9 2.6-1.9h.6c0-.2.1-.2.1-.3 0-.3-.3-.4-.9-.4-.4 0-.9.1-1.2.1l-.2.1h-.1l.2-1.1c.7-.2 1.2-.3 1.8-.3 1.3 0 1.9.5 1.9 1.4 0 .2 0 .4-.1 1-.4.9-.6 1.7-.7 2.6zm4-3v-.2c0-.4-.3-.6-.7-.6-.5 0-.8.3-.9.9l1.6-.1zm.8 2.9c-.5.1-1 .2-1.5.2-1.6 0-2.5-.8-2.5-2.2 0-1.7 1.1-2.9 2.6-2.9 1.2 0 2 .7 2 1.8 0 .4-.1.7-.2 1.2h-2.9v.2c0 .6.4.9 1.3.9.5 0 1-.1 1.5-.3l-.3 1.1zM34 12.3c0-.5-.2-1-.8-1-.8 0-1.2.9-1.2 1.7 0 .7.3 1.1.8 1.1.3 0 1-.4 1.1-1.2.1-.2.1-.4.1-.6zm1.5.6c-.2 1.6-1.4 2.3-2.9 2.3-1.7 0-2.3-1-2.3-2.3 0-1.7 1.1-2.9 2.9-2.9 1.5 0 2.3 1 2.3 2.2.1.4.1.4 0 .7z" fill="#FFF"/></g></svg><svg width="40" viewBox="0 0 40 24" height="24" y="24"><title>4EFD5FE8-2AED-4CB5-8DF9-4CA79BBE5BC2</title><g fill-rule="evenodd"><path d="M40 12c0 6.655-5.345 12-12 12s-12-5.345-12-12S21.345 0 28 0c6.555 0 12 5.345 12 12z" fill="#F90"/><path d="M11.9 0C5.344 0 0 5.445 0 12c0 6.655 5.345 12 12 12 3.126 0 5.95-1.21 8.067-3.126.404-.403.807-.807 1.21-1.311h-2.42l-.907-1.21h4.235c.302-.403.504-.807.706-1.311h-5.647c-.202-.403-.404-.807-.505-1.21h6.656A12.19 12.19 0 0 0 24 12c0-.908-.1-1.714-.303-2.521h-7.36c.1-.403.2-.807.302-1.21h6.655a7.002 7.002 0 0 0-.504-1.311h-5.647c.202-.403.403-.807.706-1.21h4.235c-.302-.403-.605-.908-.908-1.311h-2.319l1.21-1.21C17.85 1.109 15.025 0 11.9 0z" fill="#C00"/><path d="M16 15.1l.2-1.1h-.3c-.4 0-.5-.2-.5-.4l.4-2.2h.7l.1-1.2H16l.1-.7h-1.3s-.7 4.2-.7 4.7c0 .7.4 1.1 1 1.1.4 0 .8-.2.9-.2zm.4-2.1c0 1.8 1.2 2.2 2.2 2.2.9 0 1.4-.2 1.4-.2l.2-1.2s-.8.3-1.4.3c-1.4 0-1.1-1-1.1-1h2.6s.2-.8.2-1.2c0-.8-.5-1.9-1.8-1.9-1.3.1-2.3 1.5-2.3 3zm2.3-1.7c.7 0 .6.8.6.9h-1.4c-.1-.2.1-.9.8-.9zm8 3.8l.2-1.4s-.6.3-1 .3c-.9 0-1.3-.7-1.3-1.4 0-1.5.8-2.3 1.6-2.3.6 0 1.2.4 1.2.4l.2-1.3S27 9 26.3 9c-2 0-3.1 1.4-3.1 3.8 0 1.6.8 2.7 2.3 2.7.5-.2 1.2-.4 1.2-.4zm-17.6-5c-.9 0-1.5.3-1.5.3l-.2 1.1s.5-.2 1.4-.2c.5 0 .8.1.8.4v.3h-.5c-1.2 0-2.2.5-2.2 1.9 0 1.1.8 1.4 1.2 1.4.9 0 1.2-.6 1.3-.6v.5h1.1l.5-3.5c-.2-1.5-1.5-1.6-1.9-1.6zm.2 2.9c0 .2-.1 1.2-.8 1.2-.4 0-.5-.3-.5-.5 0-.3.2-.8 1.1-.8.2.1.1.1.2.1zm2.7 2.2c.3 0 1.9.1 1.9-1.6 0-1.6-1.5-1.3-1.5-1.9 0-.3.2-.4.7-.4.2 0 .9.1.9.1l.2-1.1s-.4-.1-1.2-.1c-.9 0-1.9.4-1.9 1.7 0 1.4 1.6 1.3 1.6 1.9 0 .4-.4.4-.8.4-.6 0-1.1-.2-1.1-.2l-.2 1.1s.3.1 1.4.1zm25.1-6.1l-.2 1.7s-.5-.7-1.2-.7c-1.4 0-2.1 1.4-2.1 3 0 1 .5 2.1 1.6 2.1.8 0 1.2-.5 1.2-.5l-.1.5h1.2l1-6-1.4-.1zm-.5 3.3c0 .7-.3 1.6-1 1.6-.5 0-.7-.4-.7-1 0-1 .4-1.6 1-1.6.4 0 .7.3.7 1zM2.2 15.2l.8-4.5.1 4.5H4l1.6-4.5-.7 4.5h1.3l1-6H5.1l-1.2 3.6V9.1H2l-1 6h1.2v.1z" fill="#006"/><path d="M22.3 15.4c.4-2.1.5-3.8 1.6-3.4.2-.8.5-1.5.7-1.9 0 0-.1-.1-.4-.1-.6 0-1.3 1.1-1.3 1.1l.1-.7h-1.2l-.8 4.9h1.3v.1zm7.6-5.1c-.9 0-1.5.3-1.5.3l-.2 1.1s.5-.2 1.4-.2c.5 0 .8.1.8.4v.3h-.5c-1.2 0-2.2.5-2.2 1.9 0 1.1.8 1.4 1.2 1.4.9 0 1.2-.6 1.3-.6v.5h1.1l.5-3.5c-.1-1.5-1.4-1.6-1.9-1.6zm.2 2.9c0 .2-.1 1.2-.8 1.2-.4 0-.5-.3-.5-.5 0-.3.2-.8 1.1-.8l.2.1zm2.8 2.2c.2-1.5.6-3.7 1.6-3.4.2-.8 0-.8-.3-.8h-.7l.1-.7h-1.2l-.8 4.9h1.3z" fill="#006"/><path d="M15.9 15l.2-1.1h-.3c-.4 0-.5-.2-.5-.4l.4-2.2h.7l.2-1.2h-.8l.1-.7h-1.3s-.7 4.2-.7 4.7c0 .7.4 1.1 1 1.1.5-.1.9-.2 1-.2zm.4-2.1c0 1.8 1.2 2.2 2.2 2.2.9 0 1.3-.2 1.3-.2l.2-1.2s-.7.3-1.3.3c-1.4 0-1.1-1-1.1-1h2.6s.2-.8.2-1.2c0-.8-.4-1.9-1.8-1.9-1.4.1-2.3 1.5-2.3 3zm2.2-1.8c.7 0 .6.8.6.9h-1.4c0-.1.1-.9.8-.9zm8 3.9l.2-1.4s-.6.3-1.1.3c-.9 0-1.3-.7-1.3-1.4 0-1.5.8-2.3 1.6-2.3.6 0 1.2.4 1.2.4l.2-1.3s-.8-.3-1.4-.3c-1.5 0-2.9 1.3-2.9 3.6 0 1.6.8 2.6 2.3 2.6.6 0 1.2-.2 1.2-.2zM8.9 10c-.9 0-1.5.3-1.5.3l-.2 1.1s.6-.2 1.4-.2c.5 0 .8.1.8.4v.3h-.5c-1.1 0-2.2.5-2.2 1.9 0 1.1.8 1.4 1.2 1.4.9 0 1.3-.6 1.3-.6v.5h1.1l.5-3.5c-.1-1.5-1.4-1.6-1.9-1.6zm.3 2.9c0 .2-.1 1.2-.9 1.2-.4 0-.5-.3-.5-.5 0-.3.2-.8 1.1-.8.2 0 .3.1.3.1zm2.6 2.2c.3 0 1.9.1 1.9-1.6 0-1.6-1.5-1.3-1.5-1.9 0-.3.2-.4.7-.4.2 0 .9.1.9.1l.2-1.1s-.4-.1-1.2-.1c-.9 0-1.9.4-1.9 1.7 0 1.4 1.6 1.3 1.6 1.9 0 .4-.4.4-.8.4-.6 0-1.1-.2-1.1-.2l-.2 1.1c.1 0 .4.1 1.4.1zM37 9l-.3 1.7s-.5-.7-1.2-.7c-1.2 0-2.1 1.4-2.1 3 0 1 .5 2.1 1.6 2.1.8 0 1.2-.5 1.2-.5l-.1.5h1.2l1-6L37 9zm-.6 3.3c0 .7-.3 1.6-1 1.6-.5 0-.7-.4-.7-1 0-1 .4-1.6 1-1.6.5 0 .7.3.7 1zM2.1 15l.8-4.5L3 15h.9l1.6-4.5-.7 4.5h1.3l1-6h-2l-1.2 3.7L3.8 9H2l-1 6h1.1zm19.5.1c.4-2.1.4-3.8 1.3-3.5.2-.8.3-1.1.5-1.5h-.2c-.6 0-1 .8-1 .8l.1-.7h-1.2l-.8 4.9h1.3zm7.9-5.1c-.9 0-1.5.3-1.5.3l-.2 1.1s.5-.2 1.4-.2c.5 0 .8.1.8.4v.3h-.5c-1.1 0-2.2.5-2.2 1.9 0 1.1.8 1.4 1.2 1.4.9 0 1.3-.6 1.3-.6v.5h1.1l.5-3.5c-.2-1.5-1.5-1.6-1.9-1.6zm.2 2.9c0 .2-.1 1.2-.9 1.2-.4 0-.5-.3-.5-.5 0-.3.2-.8 1.1-.8.3 0 .3.1.3.1zm2.5 2.2c.4-2.1.4-3.8 1.3-3.5.2-.8.3-1.1.5-1.5h-.2c-.6 0-1 .8-1 .8l.1-.7h-1.2l-.8 4.9h1.3zm6.1-.8c.1 0 .3.1.3.2.1.2 0 .4-.1.5s-.3.1-.4 0c-.2-.1-.3-.3-.1-.5 0-.1.1-.2.3-.2zm0 .1c-.1 0-.2.1-.3.2s-.1.2 0 .3c0 .1.1.1.1.1.1.1.2.1.3 0 .2-.1.2-.3.1-.4 0-.2-.1-.2-.2-.2zm-.2.5v-.4h.3v.2h-.1s0 .1.1.1v.1h-.1v-.1s0-.1-.1-.1h-.1v.2zm.1-.2h.1-.1z" fill="#FFF"/></g></svg><svg width="142" viewBox="0 0 142 35" height="35" y="48"><title>23BD5FE0-54B3-4374-B056-B8018D06E4AD</title><defs><radialGradient id="a" cy="87.674%" cx="57.703%" r="63.277%"><stop stop-color="#52A347" offset="0"/><stop stop-color="#83B03E" offset=".502"/><stop stop-color="#2EA64C" offset=".706"/><stop stop-color="#264122" offset=".929"/><stop stop-color="#264122" offset=".933"/></radialGradient><radialGradient id="b" cy="32.828%" cx="53.252%" r="57.455%"><stop stop-color="#52A347" offset="0"/><stop stop-color="#83B03E" offset=".502"/><stop stop-color="#2B9940" offset=".706"/><stop stop-color="#264122" offset=".929"/><stop stop-color="#264122" offset=".933"/></radialGradient></defs><g fill-rule="evenodd"><path d="M136.95 4.47h3.352c-.6.335-1.405.972-2.415 1.91l-3.35 3.423 1.838 2.63c1.922 2.74 3.604 4.83 5.045 6.272h-4.793c-.6-1.394-1.382-2.81-2.343-4.253l-2.162-3.243 1.87-2.379c1.68-2.186 2.666-3.64 2.954-4.36zm-5.08 1.585v11.028l.143.83c.096.143.313.264.648.36v.432h-4.65v-.432l.65-.36c.095-.145.143-.42.143-.83V6.055l-.144-.793c-.096-.168-.313-.276-.648-.324v-.47h4.65v.47c-.337.047-.554.156-.65.324l-.143.793h.001zm-6.92 0v11.028l.143.83.65.36v.432h-4.687v-.432c.336-.096.577-.217.72-.36l.11-.83v-5.73h-5.48v5.73l.145.83c.096.143.312.264.648.36v.432h-4.722v-.432c.386-.096.626-.217.722-.36l.144-.83V6.055l-.144-.793c-.096-.168-.336-.276-.72-.324v-.47h4.72v.47c-.336.047-.552.156-.647.324l-.145.793v4.36h5.48v-4.36l-.11-.793c-.143-.168-.384-.276-.72-.324v-.47h4.686v.47c-.337.047-.553.156-.65.324l-.143.793zm-1.695 22.13h2.27l-.938 4.756h-.648l.433-2.197h-1.118l-1.55 2.198h-.722l1.586-2.234c-.648-.192-.973-.6-.973-1.225 0-.335.145-.624.434-.864.288-.288.697-.432 1.225-.432l.001-.002zm-.145 2.017h1.37l.287-1.478h-1.513c-.338 0-.602.084-.794.253a.734.734 0 0 0-.217.54c0 .457.288.685.865.685h.002zm-5.55-.793l-.468 2.378c.36.457.768.685 1.225.685.456 0 .853-.228 1.19-.685.335-.48.503-1.068.503-1.765 0-.457-.096-.806-.288-1.046s-.468-.36-.828-.36c-.53 0-.975.263-1.336.792l.002.001zm.18-1.226l-.108.576.612-.504.793-.18c.504 0 .9.168 1.188.504.29.337.435.828.435 1.478 0 .865-.228 1.573-.685 2.126-.433.552-.974.828-1.622.828l-.794-.144-.576-.432-.468 2.415h-.65l1.3-6.667h.575zm11.39 0l.54 4.18h.467l-.288 1.48h-.504l.107-.902h-3.207l-.253.9h-.468l.252-1.477h.432l1.982-4.18h.938l.002-.001zm-.614.612l-1.657 3.568h2.126l-.325-3.568h-.144zm2.235 2.163c0-.82.24-1.503.72-2.056.434-.552.962-.828 1.586-.828.53 0 .94.192 1.227.576.312.36.468.865.468 1.514 0 .768-.228 1.442-.685 2.02-.456.55-.985.827-1.585.827-.53 0-.95-.18-1.262-.54-.31-.36-.468-.865-.468-1.514l-.001.001zm10.668-7.28h-104.3v-1.407h104.3v1.407zm-4.036 4.504l.54 4.108 1.983-4.108h1.045l-.937 4.758h-.613l.793-4.18-2.09 4.18h-.613l-.613-4.18-.83 4.18h-.61l.936-4.758h1.01-.001zm-3.568.83a1.025 1.025 0 0 0-.83-.398c-.408 0-.77.228-1.08.685-.338.48-.506 1.07-.506 1.766 0 .433.108.782.324 1.045.193.24.445.362.757.362.433 0 .818-.228 1.154-.685.312-.48.467-1.057.467-1.73 0-.432-.096-.78-.288-1.044l.002-.001zm-31.54-24.075v-.47h4.108c.05.65.218 1.347.506 2.09l3.027 8.507c.505 1.49.997 2.703 1.478 3.64h-3.603l-1.55-5.118h-4.577l-.973 3.388-.29 1.73h-2.594l4.613-10.668c.457-1.13.685-1.898.685-2.307.002-.456-.275-.72-.827-.792h-.003zm1.694 1.91l-1.946 5.73h3.893l-1.946-5.73h-.001zm-7.28.72h-.794l-.18-.612c-.192-.697-.48-1.153-.865-1.37l-1.982-.252h-1.91c-.433 0-.72.072-.864.216-.12.12-.18.336-.18.65v3.387h.792c2.307 0 3.905.228 4.794.685 1.273.625 1.91 1.85 1.91 3.676 0 1.778-.505 3.05-1.515 3.82-.888.625-2.27.937-4.144.937h-5.695v-.432l.684-.36.107-.83V6.055l-.108-.793c-.097-.168-.325-.276-.685-.324v-.47h10.632v3.1l.003-.001zm-6.776 2.92v6.09c0 .48.086.794.254.938.193.192.53.288 1.01.288h.43c.915 0 1.587-.313 2.02-.937.384-.577.577-1.5.577-2.775 0-1.25-.204-2.138-.613-2.667-.432-.625-1.237-.937-2.414-.937h-1.258zm.902 16.146c.29.288.433.685.433 1.19 0 .432-.133.792-.397 1.08-.24.264-.624.468-1.153.613.745.312 1.117.805 1.117 1.478 0 .625-.216 1.105-.648 1.442-.408.336-1.02.504-1.838.504h-2.27l1.26-6.74h2.126c.602.002 1.058.146 1.37.434v-.001zm-2.92.18l-.467 2.343h1.334c.575 0 1.02-.12 1.332-.36.313-.264.47-.59.47-.974 0-.36-.098-.613-.29-.757-.216-.168-.54-.253-.973-.253h-1.407l.001.001zm4.434 4.145c0 .48.12.84.36 1.08.217.264.53.397.938.397l.828-.253.468-.648.505.216-.72.9c-.314.24-.698.36-1.155.36-.553 0-.998-.19-1.334-.575s-.504-.9-.504-1.55c0-.77.216-1.43.65-1.982.43-.553.972-.83 1.62-.83.457 0 .817.122 1.082.362.264.216.48.553.648 1.008l-.61.108c-.17-.625-.54-.937-1.118-.937-.433 0-.817.216-1.154.648-.335.457-.504 1.022-.504 1.695v.001zm-3.784-1.226H87.32l-.468 2.594h1.584c.53 0 .937-.12 1.226-.36.287-.24.432-.564.432-.973 0-.313-.132-.6-.396-.865-.313-.264-.698-.396-1.154-.396h.001zm11.713.828h-3.35l-.037.397c0 .48.12.852.36 1.116.217.265.517.397.9.397.338 0 .626-.108.866-.325l.613-.793.54.29-.9.972c-.337.264-.746.396-1.226.396-.552 0-.984-.18-1.296-.54-.313-.385-.47-.89-.47-1.514 0-.842.217-1.526.65-2.056.457-.552 1.02-.828 1.694-.828.553 0 .974.168 1.26.504.314.313.47.77.47 1.37l-.073.612-.001.002zm-.83-1.585a1.067 1.067 0 0 0-.828-.36c-.432 0-.768.13-1.008.396-.242.216-.435.553-.58 1.01h2.632l.036-.29c0-.288-.083-.54-.252-.756zm1.55 3.964l.938-4.756h2.666l-.108.54h-2.055l-.83 4.217h-.61l-.001-.001zm5.37-4.144l-1.657 3.568h2.126l-.324-3.568h-.145zm.614-.612l.54 4.18h.467l-.288 1.48h-.47l.073-.902h-3.208l-.253.9h-.468l.253-1.477h.432l1.98-4.18h.94l.002-.001zm1.728 3.496c0-.505.217-.89.65-1.154.456-.288 1.093-.433 1.91-.433h.647l.037-.54c0-.313-.083-.54-.252-.684-.193-.17-.457-.254-.794-.254-.313 0-.66.18-1.044.54l-.397-.396c.53-.457 1.045-.684 1.55-.684.48 0 .864.132 1.153.396.288.265.433.6.433 1.01l-.072.72-.324 1.586c-.072.336-.108.72-.108 1.154h-.612l-.037-.54-.648.432-.758.18c-.384 0-.697-.132-.938-.397a1.285 1.285 0 0 1-.396-.937v.001zm2.63-1.082c-1.32 0-1.98.336-1.98 1.01 0 .24.07.444.215.612.16.165.383.257.613.253.36 0 .818-.204 1.37-.613l.252-1.262h-.47zM84.805 8.542c0 1.657-.505 2.847-1.515 3.568-.866.625-2.21.937-4.037.937H77.81v4.036l.145.83c.072.143.3.264.684.36v.432h-4.686v-.432l.65-.36.143-.83V6.055l-.144-.793c-.096-.168-.313-.276-.65-.324v-.47h5.912c1.61 0 2.786.24 3.532.722.938.625 1.407 1.742 1.407 3.352h.002zm-6.776-3.064c-.144.096-.216.312-.216.65v6.018h1.44c.89 0 1.515-.337 1.875-1.01.313-.6.47-1.513.47-2.74 0-2.04-.855-3.062-2.56-3.062h-.36l-.65.144h.001zm-6.235 2.09h-.757l-.18-.612c-.24-.697-.54-1.153-.9-1.37l-1.947-.252h-1.587l-.577.144-.144.54v4.398h1.874c1.298 0 2.15-.144 2.56-.433v1.802c-.41-.288-1.262-.432-2.56-.432h-1.874v5.334c0 .432.144.733.433.9l1.802.217h.396l1.946-.288c.336-.217.6-.745.792-1.586l.144-.54h.9v3.315h-10.27v-.432c.36-.096.59-.217.684-.36l.145-.83V6.055l-.145-.793c-.095-.168-.324-.276-.684-.324v-.47h9.947v3.1h.002zm-12.29 0h-.757l-.18-.612c-.216-.697-.517-1.153-.9-1.37l-1.91-.252h-1.983c-.41 0-.697.072-.865.216-.072.12-.11.336-.11.65v3.387h.794c2.283 0 3.88.228 4.794.685 1.25.625 1.874 1.85 1.874 3.676 0 1.778-.505 3.05-1.514 3.82-.865.625-2.247.937-4.144.937h-5.73v-.432c.384-.096.624-.217.72-.36l.144-.83V6.055l-.144-.793c-.096-.168-.336-.276-.72-.324v-.47H59.5v3.1h.004zM45.16 5.623c-.434-.312-1.106-.468-2.02-.468-1.44 0-2.462.528-3.063 1.586-.504.913-.757 2.402-.757 4.47 0 2.065.276 3.59.83 4.576.672 1.225 1.825 1.838 3.46 1.838 1.2 0 2.39-.288 3.567-.865l.433.9c-1.37.84-2.98 1.26-4.83 1.26-4.517 0-6.775-2.39-6.775-7.17 0-5.022 2.342-7.533 7.027-7.533 1.803 0 3.184.216 4.145.648V7.82h-.9l-.253-.864c-.193-.6-.48-1.045-.865-1.334l.001.001zm7.64 4.866v6.09c0 .48.072.794.216.938.192.192.54.288 1.045.288h.397c1.73 0 2.595-1.238 2.595-3.712 0-1.25-.204-2.138-.612-2.667-.457-.625-1.274-.937-2.45-.937H52.8z" fill="#006236"/><path d="M23.607 2.198l1.26 1.154-15.93 9.154-7.712-4.47.72-1.44 6.993 4 14.67-8.398h-.001zM20.4.36l1.693.865-13.155 7.57L2.81 5.297l1.046-1.26 5.082 2.918L20.398.36h.002zm5.585 4.18l.937 1.263L8.938 16.146.252 11.173.65 9.587l8.288 4.757L25.985 4.54z" fill="url(#a)"/><path d="M28.58 9.19c.53 1.49.793 3.052.793 4.686s-.264 3.22-.793 4.757l-.36.974a14.987 14.987 0 0 1-3.136 4.685 14.49 14.49 0 0 1-4.685 3.1c-1.85.792-3.76 1.19-5.73 1.19a14.25 14.25 0 0 1-5.732-1.19c-1.706-.72-3.256-1.755-4.65-3.1a14.214 14.214 0 0 1-3.135-4.685A14.8 14.8 0 0 1 0 13.877v-.974l8.938 5.08 18.85-10.81.792 2.017z" fill="url(#b)"/></g></svg><svg width="57" viewBox="0 0 57 18" height="18" y="83"><title>BF3703A8-6C44-4159-9EDB-D11BCDB8FF39</title><g fill-rule="evenodd"><path d="M17.74 16.914L20.414.496h4.356l-2.673 16.418h-4.355zM37.737.885c-.89-.291-2.177-.68-3.86-.68-4.257 0-7.325 2.234-7.325 5.44 0 2.331 2.177 3.691 3.761 4.469 1.683.777 2.277 1.36 2.277 2.04 0 1.068-1.386 1.651-2.574 1.651-1.782 0-2.672-.291-4.058-.874l-.594-.292-.594 3.692c.99.485 2.87.874 4.85.874 4.554 0 7.524-2.234 7.524-5.634 0-1.846-1.09-3.303-3.663-4.469-1.485-.777-2.475-1.263-2.475-2.04 0-.68.792-1.457 2.475-1.457a7.89 7.89 0 0 1 3.267.68l.396.194.593-3.594zm5.742 10.2c.396-.971 1.683-4.566 1.683-4.566s.396-.971.594-1.554l.297 1.457s.792 3.886.99 4.76h-3.564v-.097zM48.823.496h-3.365c-.99 0-1.782.292-2.277 1.36l-6.434 15.058H41.3s.792-2.04.891-2.429h5.543c.1.583.495 2.429.495 2.429h4.059L48.823.496zm-34.745 0L9.82 11.765l-.495-2.234C8.534 6.908 6.06 4.09 3.288 2.634l3.86 14.377h4.554L18.532.594h-4.454V.496z" fill="#2B3894"/><path d="M7.08 1.205H.382l-.094.387c5.189 1.355 8.585 4.645 10 8.613L8.873 2.657C8.684 1.592 7.93 1.205 7.08 1.205" fill="#F79510"/><path d="M55.088 16.105h.2c.1 0 .2-.1.2-.2s-.1-.1-.2-.1h-.2v.3zm-.1-.4h.4c.1 0 .3 0 .3.3 0 .1 0 .2-.2.2.1 0 .1.1.1.2v.2h-.1v-.2c0-.1 0-.2-.2-.2h-.1v.4h-.2v-.9zm.3 1.3c.4 0 .8-.4.8-.8s-.3-.8-.8-.8c-.4 0-.8.4-.8.8s.4.8.8.8zm0-1.8c.5 0 1 .4 1 1 0 .5-.4 1-1 1-.5 0-1-.4-1-1 0-.5.5-1 1-1z" fill="#2B3894"/></g></svg></svg>