<svg xmlns="http://www.w3.org/2000/svg" width="30" height="90" viewBox="0 0 30 90"><svg width="30" viewBox="0 0 30 30" height="30"><title>698E685C-5FEA-4E85-B6AF-3484C98BA90D</title><path fill-rule="evenodd" d="M15 0C6.7 0 0 6.7 0 15s6.7 15 15 15 15-6.7 15-15S23.2 0 15 0zm3.9 15h-2.5v9H13v-9h-2.2v-3.1H13v-1.8c0-2.5.7-4.1 3.7-4.1h2.5v3.1h-1.5c-1.2 0-1.2.4-1.2 1.2v1.6h2.8l-.4 3.1z" fill="#014986"/></svg><svg width="30" viewBox="0 0 30 30" height="30" y="30"><title>23DB2BA5-260B-46DF-B6CC-CE4FABC109EA</title><path fill-rule="evenodd" d="M15 0C6.745 0 0 6.745 0 15s6.745 15 15 15 15-6.745 15-15S23.255 0 15 0zm6.644 11.577v.403c0 4.53-3.423 9.866-9.865 9.866-1.913 0-3.725-.504-5.336-1.51 1.812.2 3.624-.302 5.134-1.41a3.352 3.352 0 0 1-3.221-2.416c.503.1 1.006.1 1.51-.1a3.464 3.464 0 0 1-2.819-3.423c.503.302 1.007.402 1.61.402-1.006-.604-1.51-1.711-1.51-2.92 0-.603.202-1.207.504-1.71 1.711 2.113 4.329 3.422 7.148 3.624-.403-1.813.704-3.725 2.617-4.128 1.208-.302 2.517.1 3.322 1.007.806-.202 1.51-.403 2.215-.806-.302.806-.805 1.51-1.51 1.913.705-.1 1.309-.302 2.013-.503a9.829 9.829 0 0 1-1.812 1.711z" fill="#014986"/></svg><svg width="30" viewBox="0 0 30 30" height="30" y="60"><title>5255A128-E08C-497A-9645-37FE4065F12E</title><path fill-rule="evenodd" d="M15 0C6.7 0 0 6.7 0 15s6.7 15 15 15 15-6.7 15-15c-.1-8.3-6.8-15-15-15zm7.5 16.6c.7.7 1.4 1.3 2.1 2.1.3.3.5.7.7 1.1.3.6 0 1.2-.5 1.2h-3.1c-.8.1-1.4-.3-2-.8-.4-.4-.8-.9-1.2-1.3-.2-.2-.3-.4-.6-.5-.4-.3-.8-.2-1 .2s-.3.9-.3 1.4c0 .7-.2.9-1 .9-1.5.1-3-.2-4.4-.9-1.2-.7-2.1-1.7-3-2.8-1.6-2.1-2.8-4.5-3.9-6.9-.2-.5-.1-.8.5-.9h3c.4 0 .7.2.8.6.5 1.3 1.2 2.6 2 3.8.2.3.4.6.8.8s.6.2.8-.2c.1-.3.2-.5.2-.8.1-.9.1-1.9 0-2.8-.1-.6-.4-.9-1-1.1-.3-.1-.2-.2-.1-.3.2-.3.5-.5.9-.5h3.5c.5.1.7.4.7.9v3.8c0 .2.1.8.5 1 .3.1.5-.1.7-.3.8-.9 1.4-1.9 2-3l.6-1.5c.1-.4.4-.5.8-.5h3.6c.6.1.7.3.5.9-.3.9-.8 1.6-1.3 2.3-.6.8-1.2 1.5-1.7 2.3-.2.8-.2 1.2.4 1.8z" fill="#014986"/></svg></svg>